<?xml version="1.0" encoding="UTF-8"?><svg id="b" xmlns="http://www.w3.org/2000/svg" viewBox="0 0 118 114.37"><defs><style>.d{fill:#c60a5a;}.d,.e{stroke-width:0px;}.e{fill:#ca0a5a;}</style></defs><g id="c"><path class="d" d="M8.46,72.55v-7.51l29.26-12.57v9.82l-17.19,6.5,17.19,6.5v9.82l-29.26-12.57Z"/><path class="d" d="M65.38,38.67h10.47l-23.55,60.24h-10.47l23.55-60.24Z"/><path class="d" d="M80.04,75.29l17.19-6.5-17.19-6.5v-9.82l29.25,12.57v7.51l-29.25,12.57v-9.82Z"/><path class="e" d="M8.61,72.55v-7.51l29.26-12.57v9.82l-17.19,6.5,17.19,6.5v9.82l-29.26-12.57Z"/><path class="e" d="M65.53,38.67h10.47l-23.55,60.24h-10.47l23.55-60.24Z"/><path class="e" d="M80.19,75.29l17.19-6.5-17.19-6.5v-9.82l29.25,12.57v7.51l-29.25,12.57v-9.82Z"/></g></svg>