<svg width="141" height="32" viewBox="0 0 141 32" fill="none" xmlns="http://www.w3.org/2000/svg">
<g clip-path="url(#clip0_529_10110)">
<path d="M14.4049 0.917171C15.3925 0.349305 16.6075 0.349306 17.5951 0.917172L30.3951 8.27717C31.3879 8.84806 32 9.906 32 11.0513V28.8C32 30.5673 30.5673 32 28.8 32H3.2C1.43269 32 0 30.5673 0 28.8V11.0513C0 9.90601 0.612053 8.84805 1.60489 8.27717L14.4049 0.917171Z" fill="url(#paint0_linear_529_10110)"/>
<path opacity="0.3" d="M32 17.4564V28.8C32 30.5673 30.5673 32 28.8 32H3.2C1.43269 32 0 30.5673 0 28.8V20.0256C8.91939 12.7248 21.9049 11.5425 32 17.4564Z" fill="white"/>
<path opacity="0.3" d="M32 11.9385V28.8C32 30.5673 30.5673 32 28.8 32H3.2C1.43269 32 0 30.5673 0 28.8V11.9385C10.4005 8.73674 21.5995 8.73674 32 11.9385Z" fill="white"/>
<path opacity="0.8" d="M32 26.183V28.8C32 30.5673 30.5673 32 28.8 32H3.2C1.43269 32 0 30.5673 0 28.8V26.183C3.43975 21.0096 9.32169 17.6 16 17.6C22.6783 17.6 28.5602 21.0096 32 26.183Z" fill="white"/>
</g>
<path d="M135.212 26.8C131.986 26.8 129.582 24.4933 129.582 21.0542C129.582 17.7829 131.859 15.3924 135.149 15.3924C138.438 15.3924 140.442 17.9088 140.399 20.6558L140.378 21.9769H132.175C132.471 23.6126 133.631 24.5143 135.212 24.5143C136.372 24.5143 137.384 23.9061 137.848 23.1722L139.767 24.4723C138.86 25.8563 137.342 26.8 135.212 26.8ZM132.239 19.859H137.848C137.785 18.6637 136.688 17.5523 135.149 17.5523C133.652 17.5523 132.597 18.433 132.239 19.859Z" fill="#000000"/>
<path d="M123.797 26.8C121.308 26.8 119.558 25.5628 119.094 23.4867L121.456 22.8786C121.709 24.032 122.679 24.5562 123.818 24.5562C125.252 24.5562 125.884 23.99 125.884 23.3609C125.884 22.8157 125.547 22.4173 124.64 22.2495L122.658 21.8511C121.161 21.5785 119.664 20.6558 119.664 18.6847C119.664 16.8812 121.287 15.3924 123.986 15.3924C126.348 15.3924 128.056 16.6296 128.478 18.5379L126.18 19.146C126.011 18.2443 125.167 17.5523 123.986 17.5523C122.827 17.5523 122.215 18.0975 122.215 18.6847C122.215 19.2508 122.658 19.5654 123.459 19.7331L125.315 20.0896C127.403 20.4881 128.478 21.5995 128.478 23.3609C128.478 25.4369 126.686 26.8 123.797 26.8Z" fill="#000000"/>
<path d="M111.493 26.8C109.385 26.8 107.719 25.4369 107.719 23.298C107.719 21.2849 109.279 19.9009 111.768 19.9009H114.846V19.6283C114.846 18.475 114.003 17.6152 112.674 17.6152C111.325 17.6152 110.692 18.475 110.544 19.1879L108.204 18.5379C108.752 16.5457 110.418 15.3924 112.674 15.3924C115.816 15.3924 117.419 17.4894 117.419 19.6283V23.9271C117.419 24.3046 117.63 24.4304 117.967 24.4304H118.305V26.5274H116.765C115.69 26.5274 115.057 25.8563 115.057 24.8917V24.4094H114.635C114.424 25.8983 113.244 26.8 111.493 26.8ZM110.376 23.2351C110.376 24.0739 111.114 24.6611 112.147 24.6611C114.024 24.6611 114.846 23.4867 114.846 22.1237V21.8511H112.105C111.093 21.8511 110.376 22.2915 110.376 23.2351Z" fill="#000000"/>
<path d="M101.923 26.8C100.109 26.8 98.8442 25.9193 98.4224 24.4514H97.9796V26.5274H95.3648V10.8H97.9796V17.741H98.4013C98.8442 16.4618 100.109 15.3924 101.923 15.3924C104.749 15.3924 106.689 17.8668 106.689 21.0962C106.689 24.3255 104.749 26.8 101.923 26.8ZM97.8741 21.0962C97.8741 23.0044 99.2026 24.4094 100.932 24.4094C102.661 24.4094 104.01 23.1093 104.01 21.0962C104.01 19.125 102.661 17.7829 100.932 17.7829C99.287 17.7829 97.8741 19.0411 97.8741 21.0962Z" fill="#000000"/>
<path d="M88.6295 26.8C85.4031 26.8 82.9992 24.4933 82.9992 21.0542C82.9992 17.7829 85.2766 15.3924 88.5662 15.3924C91.8558 15.3924 93.859 17.9088 93.8169 20.6558L93.7958 21.9769H85.5929C85.8881 23.6126 87.0479 24.5143 88.6295 24.5143C89.7892 24.5143 90.8014 23.9061 91.2653 23.1722L93.1843 24.4723C92.2775 25.8563 90.7593 26.8 88.6295 26.8ZM85.6562 19.859H91.2653C91.2021 18.6637 90.1056 17.5523 88.5662 17.5523C87.069 17.5523 86.0147 18.433 85.6562 19.859Z" fill="#000000"/>
<path d="M75.5514 26.8C73.1053 26.8 71.9244 24.9966 71.9244 23.0044V15.665H74.5603V22.0818C74.5603 23.4029 75.467 24.2836 76.7323 24.2836C78.1029 24.2836 79.0307 23.298 79.0307 21.9769V15.665H81.6666V26.5274H79.0307V24.4514H78.609C78.2505 25.7725 77.154 26.8 75.5514 26.8Z" fill="#000000"/>
<path d="M67.2406 26.5274V10.8H69.8765V26.5274H67.2406Z" fill="#000000"/>
<path d="M59.1547 26.8C57.046 26.8 55.3801 25.4369 55.3801 23.298C55.3801 21.2849 56.9406 19.9009 59.4289 19.9009H62.5076V19.6283C62.5076 18.475 61.6641 17.6152 60.3356 17.6152C58.986 17.6152 58.3534 18.475 58.2058 19.1879L55.8651 18.5379C56.4134 16.5457 58.0793 15.3924 60.3356 15.3924C63.4776 15.3924 65.0802 17.4894 65.0802 19.6283V23.9271C65.0802 24.3046 65.291 24.4304 65.6284 24.4304H65.9658V26.5274H64.4265C63.351 26.5274 62.7184 25.8563 62.7184 24.8917V24.4094H62.2967C62.0858 25.8983 60.9049 26.8 59.1547 26.8ZM58.0371 23.2351C58.0371 24.0739 58.7752 24.6611 59.8084 24.6611C61.6852 24.6611 62.5076 23.4867 62.5076 22.1237V21.8511H59.7662C58.7541 21.8511 58.0371 22.2915 58.0371 23.2351Z" fill="#000000"/>
<path d="M46.2814 26.5274L41.6001 12.205V11.8485H44.489L48.2847 24.1578H48.7275L52.5654 11.8485H55.4543V12.205L50.794 26.5274H46.2814Z" fill="#000000"/>
<defs>
<linearGradient id="paint0_linear_529_10110" x1="-27.8" y1="6.39999" x2="32" y2="12.6" gradientUnits="userSpaceOnUse">
<stop stop-color="#4F46E5"/>
<stop offset="1" stop-color="#7C3AED"/>
</linearGradient>
<clipPath id="clip0_529_10110">
<rect width="32" height="32" fill="white"/>
</clipPath>
</defs>
</svg>
